<svg width="21" height="28" viewBox="0 0 21 28" fill="none" xmlns="http://www.w3.org/2000/svg">
<path d="M3.16669 0.666626C1.78648 0.666626 0.666687 1.78642 0.666687 3.16663V24.8333C0.666687 26.2135 1.78648 27.3333 3.16669 27.3333H8.16669V23.1666C8.16669 21.7864 9.28648 20.6666 10.6667 20.6666C12.0469 20.6666 13.1667 21.7864 13.1667 23.1666V27.3333H17.849C19.4052 27.3333 20.6667 26.0718 20.6667 24.5156C20.6667 22.2209 20.6667 19.8177 20.6667 19.8177V3.16663C20.6667 1.78642 19.5469 0.666626 18.1667 0.666626H3.16669ZM4.00002 13.1666C4.00002 12.7083 4.37502 12.3333 4.83335 12.3333H6.50002C6.95835 12.3333 7.33335 12.7083 7.33335 13.1666V14.8333C7.33335 15.2916 6.95835 15.6666 6.50002 15.6666H4.83335C4.37502 15.6666 4.00002 15.2916 4.00002 14.8333V13.1666ZM9.83335 12.3333H11.5C11.9584 12.3333 12.3334 12.7083 12.3334 13.1666V14.8333C12.3334 15.2916 11.9584 15.6666 11.5 15.6666H9.83335C9.37502 15.6666 9.00002 15.2916 9.00002 14.8333V13.1666C9.00002 12.7083 9.37502 12.3333 9.83335 12.3333ZM14 13.1666C14 12.7083 14.375 12.3333 14.8334 12.3333H16.5C16.9584 12.3333 17.3334 12.7083 17.3334 13.1666V14.8333C17.3334 15.2916 16.9584 15.6666 16.5 15.6666H14.8334C14.375 15.6666 14 15.2916 14 14.8333V13.1666ZM4.83335 5.66663H6.50002C6.95835 5.66663 7.33335 6.04163 7.33335 6.49996V8.16663C7.33335 8.62496 6.95835 8.99996 6.50002 8.99996H4.83335C4.37502 8.99996 4.00002 8.62496 4.00002 8.16663V6.49996C4.00002 6.04163 4.37502 5.66663 4.83335 5.66663ZM9.00002 6.49996C9.00002 6.04163 9.37502 5.66663 9.83335 5.66663H11.5C11.9584 5.66663 12.3334 6.04163 12.3334 6.49996V8.16663C12.3334 8.62496 11.9584 8.99996 11.5 8.99996H9.83335C9.37502 8.99996 9.00002 8.62496 9.00002 8.16663V6.49996ZM14.8334 5.66663H16.5C16.9584 5.66663 17.3334 6.04163 17.3334 6.49996V8.16663C17.3334 8.62496 16.9584 8.99996 16.5 8.99996H14.8334C14.375 8.99996 14 8.62496 14 8.16663V6.49996C14 6.04163 14.375 5.66663 14.8334 5.66663Z" fill="#00B3FF"/>
</svg>
